<?xml version="1.0" encoding="utf-8"?>
<!-- Generator: Adobe Illustrator 26.5.1, SVG Export Plug-In . SVG Version: 6.00 Build 0)  -->
<svg version="1.1" id="Layer_1" xmlns="http://www.w3.org/2000/svg" xmlns:xlink="http://www.w3.org/1999/xlink" x="0px" y="0px"
	 viewBox="0 0 169.1 37" style="enable-background:new 0 0 169.1 37;" xml:space="preserve">
<style type="text/css">
	.st0{fill:#043D61;}
</style>
<g>
	<g>
		<polygon class="st0" points="12.4,15.3 11.3,15.3 11.3,9.3 8.5,9.3 8.5,25 11.3,25 11.3,17.6 12.4,17.6 12.4,25.8 15.2,25.8 
			15.2,9 12.4,9 		"/>
		<path class="st0" d="M7.8,19.3c-1.7,0.3-3.1,0.4-4.4,0.4v-6.4h3.9v-2.4H0.4v11.3h1.4c2.3,0,4.1-0.1,6.2-0.4h0.2L8,19.3H7.8z"/>
		<polygon class="st0" points="17.6,20.5 24.1,20.5 24.1,25.8 27.1,25.8 27.1,20.5 33.7,20.5 33.7,18.1 17.6,18.1 		"/>
		<path class="st0" d="M25.6,17.4c3.9,0,6.5-1.6,6.5-3.9s-2.6-3.9-6.5-3.9s-6.5,1.6-6.5,3.9C19.1,15.8,21.7,17.4,25.6,17.4z
			 M22.2,13.5c0-1,1.3-1.6,3.5-1.6s3.4,0.6,3.4,1.6s-1.3,1.6-3.4,1.6C23.5,15,22.2,14.5,22.2,13.5z"/>
		<polygon class="st0" points="44.8,17.9 41.9,17.9 41.9,21.5 35.3,21.5 35.3,23.9 51.4,23.9 51.4,21.5 44.8,21.5 		"/>
		<path class="st0" d="M37.2,19.1c2.8-0.5,5-1.8,6.2-3.6c1.2,1.8,3.4,3.1,6.3,3.5h0.2l1.1-2.2h-0.3c-3.7-0.5-5.4-2.4-5.7-4.1h5.1
			v-2.5H36.6v2.4h5.1c-0.4,2.1-2.5,3.7-5.6,4.2l-0.3,0.1l1.2,2.3L37.2,19.1z"/>
		<path class="st0" d="M58.5,16.2c0.8,1.4,2.1,2.4,3.6,3l0.2,0.1l1.6-2.3l-0.3-0.1c-2.3-0.8-3.7-2.6-3.7-4.9v-2h-3v2
			c0,2.6-1.4,4.5-3.9,5.2l-0.3,0.1l1.6,2.3l0.2-0.1C56.3,18.9,57.7,17.8,58.5,16.2z"/>
		<polygon class="st0" points="64.9,21.5 67.9,21.5 67.9,9 64.9,9 64.9,12.5 61.8,12.5 61.8,14.9 64.9,14.9 		"/>
		<polygon class="st0" points="59,19.8 56,19.8 56,25.5 68.3,25.5 68.3,23.2 59,23.2 		"/>
		<path class="st0" d="M75.1,14c-2.3,0-4,1.7-4,4.1s1.7,4.1,4,4.1s4-1.7,4-4.1C79.1,15.8,77.4,14,75.1,14z M76.4,18.2
			c0,1-0.5,1.7-1.4,1.7c-0.8,0-1.4-0.6-1.4-1.7c0-1,0.5-1.7,1.4-1.7S76.4,17.1,76.4,18.2z"/>
		<polygon class="st0" points="83.1,15.6 82.3,15.6 82.3,9.3 79.5,9.3 79.5,25.1 82.3,25.1 82.3,18 83.1,18 83.1,25.8 86,25.8 86,9 
			83.1,9 		"/>
		<polygon class="st0" points="76.5,9.4 73.6,9.4 73.6,11.5 70.7,11.5 70.7,13.8 79.4,13.8 79.4,11.5 76.5,11.5 		"/>
		<polygon class="st0" points="102.4,9 99.5,9 99.5,19 102.4,19 102.4,17 104.6,17 104.6,14.5 102.4,14.5 102.4,13.4 104.6,13.4 
			104.6,11 102.4,11 		"/>
		<path class="st0" d="M96.5,18.9c-3.8,0-6.1,1.3-6.1,3.5s2.3,3.5,6.1,3.5c3.7,0,6.1-1.3,6.1-3.5S100.3,18.9,96.5,18.9z M99.7,22.3
			c0,0.9-1.7,1.1-3.1,1.1c-2.1,0-3.1-0.4-3.1-1.1c0-0.9,1.7-1.1,3.1-1.1S99.7,21.4,99.7,22.3z"/>
		<path class="st0" d="M98.3,14.1c0-2.4-2.1-4.2-4.9-4.2c-2.9,0-4.9,1.8-4.9,4.2s2.1,4.2,4.9,4.2C96.2,18.3,98.3,16.5,98.3,14.1z
			 M91.4,14.1c0-1.1,0.8-1.7,2-1.7s2,0.7,2,1.7c0,1.1-0.8,1.7-2,1.7S91.4,15.2,91.4,14.1z"/>
		<polygon class="st0" points="112.2,19.7 109.2,19.7 109.2,25.5 121.4,25.5 121.4,23.2 112.2,23.2 		"/>
		<path class="st0" d="M115,13.9v2.2h3v5.3h3V9h-3v4.7h-2.9c0.4-1,0.6-2.1,0.6-3.3v-0.2h-8.5v2.4h5.3c-0.5,2.1-2.7,3.9-6,4.9
			l-0.3,0.1l1.3,2.3l0.2-0.1C111.3,18.7,113.9,16.7,115,13.9z"/>
		<polygon class="st0" points="135.7,17.8 138.6,17.8 138.6,9 135.7,9 135.7,11.4 132.5,11.4 132.5,13.8 135.7,13.8 		"/>
		<path class="st0" d="M129.2,14.9c0.8,1.3,2.1,2.2,3.7,2.7l0.2,0.1l1.6-2.2l-0.3-0.1c-2.4-0.8-3.7-2.4-3.7-4.4V9.5h-3V11
			c0,2.2-1.4,3.9-3.9,4.6l-0.3,0.1L125,18l0.2-0.1C127,17.4,128.3,16.3,129.2,14.9z"/>
		<polygon class="st0" points="129.7,22.8 138.6,22.8 138.6,18 126.8,18 126.8,20.3 135.7,20.3 135.7,20.7 126.8,20.7 126.8,25.6 
			139.1,25.6 139.1,23.3 129.7,23.3 		"/>
		<path class="st0" d="M147.3,9.9L145.1,9L145,9.2c-1.9,3-2.8,5.9-2.8,9.3c0,3.3,0.9,6.3,2.8,9.3l0.1,0.2l2.2-0.9l-0.2-0.3
			c-1.5-2.4-2.2-5.3-2.2-8.3s0.8-5.9,2.2-8.3L147.3,9.9z"/>
		<path class="st0" d="M149.4,17.6c2.8-0.4,4.9-1.4,6.1-3.1c1.2,1.6,3.3,2.7,6.1,3.1h0.2l1.1-2.3h-0.3c-3.4-0.4-4.9-1.8-5.3-3.1h4.8
			V9.8h-13.3v2.4h4.9c-0.4,1.2-1.9,2.7-5.3,3.1H148l1.1,2.3L149.4,17.6z"/>
		<polygon class="st0" points="147.5,20.4 154,20.4 154,25.8 157,25.8 157,20.4 163.6,20.4 163.6,18 147.5,18 		"/>
		<path class="st0" d="M166,9.2L165.9,9l-2.2,0.9l0.2,0.3c1.5,2.4,2.2,5.3,2.2,8.3s-0.8,5.9-2.2,8.3l-0.2,0.3l2.2,0.9l0.1-0.2
			c1.9-3,2.8-6,2.8-9.3C168.9,15.1,168,12.1,166,9.2z"/>
	</g>
</g>
</svg>
