<?xml version="1.0" encoding="iso-8859-1"?>
<!-- Generator: Adobe Illustrator 19.0.0, SVG Export Plug-In . SVG Version: 6.00 Build 0)  -->
<svg version="1.1" id="Capa_1" xmlns="http://www.w3.org/2000/svg" xmlns:xlink="http://www.w3.org/1999/xlink" x="0px" y="0px"
	 viewBox="0 0 512 512" style="enable-background:new 0 0 512 512;" xml:space="preserve">
<path style="fill:#303C42;" d="M256,0C114.844,0,0,114.844,0,256s114.844,256,256,256s256-114.844,256-256S397.156,0,256,0z"/>
<g>
	<path style="fill:#FFFFFF;" d="M490.303,248.827c-20.613-0.467-40.771-3.387-60.029-9.085l3.507-10.138
		c1.927-5.573-1.031-11.646-6.594-13.573c-5.594-1.917-11.646,1.042-13.573,6.594l-3.492,10.096
		c-15.164-6.079-29.656-13.789-43.309-23.007l6.228-8.434c3.5-4.74,2.49-11.417-2.25-14.917c-4.729-3.51-11.417-2.479-14.917,2.25
		l-6.202,8.4c-6.309-5.143-12.411-10.607-18.246-16.441c-5.837-5.836-11.294-11.943-16.427-18.257l8.385-6.191
		c4.74-3.5,5.75-10.177,2.25-14.917c-3.51-4.74-10.167-5.76-14.917-2.25l-8.388,6.193c-9.176-13.66-16.832-28.161-22.878-43.333
		l9.922-3.432c5.563-1.927,8.521-8,6.594-13.573c-1.938-5.563-8.021-8.521-13.573-6.594l-9.935,3.436
		c-5.677-19.246-8.632-39.383-9.224-59.954C386.865,25.497,486.539,125.19,490.303,248.827z"/>
	<path style="fill:#FFFFFF;" d="M21.699,263.224c20.665,0.564,40.805,3.48,59.993,9.128l-3.474,10.044
		c-1.927,5.573,1.031,11.646,6.594,13.573c1.156,0.396,2.333,0.583,3.49,0.583c4.417,0,8.552-2.771,10.083-7.177l3.465-10.016
		c15.182,6.055,29.678,13.724,43.333,22.928l-6.225,8.431c-3.5,4.74-2.49,11.417,2.25,14.917c1.906,1.406,4.125,2.083,6.323,2.083
		c3.271,0,6.5-1.5,8.594-4.333l6.202-8.398c6.303,5.138,12.406,10.599,18.246,16.44c5.837,5.836,11.294,11.943,16.427,18.257
		l-8.385,6.191c-4.74,3.5-5.75,10.177-2.25,14.917c2.094,2.833,5.323,4.333,8.594,4.333c2.198,0,4.417-0.677,6.323-2.083
		l8.388-6.193c9.176,13.66,16.832,28.161,22.878,43.333l-9.922,3.432c-5.563,1.927-8.521,8-6.594,13.573
		c1.531,4.406,5.667,7.177,10.083,7.177c1.156,0,2.333-0.188,3.49-0.583l9.935-3.436c5.677,19.246,8.632,39.383,9.224,59.954
		C125.152,486.503,25.488,386.836,21.699,263.224z"/>
	<path style="fill:#FFFFFF;" d="M270.074,489.954c-0.633-22.863-3.993-45.22-10.383-66.581l10.236-3.54
		c5.563-1.927,8.521-8,6.594-13.573c-1.948-5.563-8-8.49-13.573-6.594l-10.253,3.546c-6.773-17.193-15.435-33.602-25.883-49.022
		l8.792-6.492c4.74-3.5,5.75-10.177,2.25-14.917c-3.51-4.75-10.177-5.74-14.917-2.25l-8.796,6.495
		c-5.771-7.154-11.889-14.087-18.486-20.682c-6.595-6.595-13.523-12.72-20.669-18.504l6.482-8.777c3.5-4.74,2.49-11.417-2.25-14.917
		c-4.75-3.5-11.406-2.49-14.917,2.25l-6.453,8.74c-15.413-10.493-31.81-19.207-48.999-26.014l3.483-10.069
		c1.927-5.573-1.031-11.646-6.594-13.573c-5.563-1.938-11.646,1.031-13.573,6.594L88.698,252.1
		c-21.352-6.4-43.725-9.72-66.648-10.232C29.137,123.742,123.792,29.104,241.926,22.046c0.633,22.863,3.995,45.219,10.384,66.579
		l-10.237,3.542c-5.563,1.927-8.521,8-6.594,13.573c1.531,4.406,5.667,7.177,10.083,7.177c1.156,0,2.333-0.188,3.49-0.583
		l10.253-3.547c6.773,17.193,15.436,33.603,25.884,49.023l-8.793,6.492c-4.74,3.5-5.75,10.177-2.25,14.917
		c2.094,2.833,5.323,4.333,8.594,4.333c2.198,0,4.417-0.677,6.323-2.083l8.796-6.495c5.771,7.154,11.889,14.087,18.486,20.682
		c6.596,6.598,13.539,12.701,20.693,18.471l-6.505,8.81c-3.5,4.74-2.49,11.417,2.25,14.917c1.906,1.406,4.125,2.083,6.323,2.083
		c3.271,0,6.5-1.5,8.594-4.333l6.465-8.755c15.422,10.449,31.88,19.008,49.073,25.781l-3.569,10.318
		c-1.927,5.573,1.031,11.646,6.594,13.573c1.156,0.396,2.333,0.583,3.49,0.583c4.417,0,8.552-2.771,10.083-7.177l3.525-10.191
		c21.361,6.388,43.725,9.77,66.592,10.402C482.859,388.262,388.206,482.896,270.074,489.954z"/>
</g>
<path style="opacity:0.1;enable-background:new    ;" d="M440.151,241.919c16.276,3.977,32.988,6.518,50.152,6.908
	c-1.65-54.176-21.723-103.747-54.148-142.674C443.784,129.858,448,155.091,448,181.333C448,202.284,445.091,222.507,440.151,241.919
	z"/>
<path style="opacity:0.1;enable-background:new    ;" d="M55.927,377.609c39.993,65.585,111.074,110.178,192.836,112.69
	c-0.592-20.572-3.547-40.708-9.224-59.954l-9.935,3.436c-1.156,0.396-2.333,0.583-3.49,0.583c-4.417,0-8.552-2.771-10.083-7.177
	c-0.137-0.395-0.072-0.79-0.16-1.188c-4.4,0.234-8.746,0.667-13.204,0.667C147.565,426.667,96.882,408.279,55.927,377.609z"/>
<path style="opacity:0.1;enable-background:new    ;" d="M274.992,415.798c-1.243,1.763-2.872,3.276-5.065,4.035l-10.236,3.54
	c6.389,21.361,9.75,43.717,10.383,66.581c118.132-7.059,212.785-101.693,219.876-219.816c-19.117-0.529-37.737-3.465-55.858-7.988
	C408.512,335.38,349.422,392.865,274.992,415.798z"/>
<linearGradient id="SVGID_1_" gradientUnits="userSpaceOnUse" x1="-45.5784" y1="639.555" x2="-23.8278" y2="629.4138" gradientTransform="matrix(21.3333 0 0 -21.3333 996.3334 13791.667)">
	<stop  offset="0" style="stop-color:#FFFFFF;stop-opacity:0.2"/>
	<stop  offset="1" style="stop-color:#FFFFFF;stop-opacity:0"/>
</linearGradient>
<path style="fill:url(#SVGID_1_);" d="M256,0C114.844,0,0,114.844,0,256s114.844,256,256,256s256-114.844,256-256S397.156,0,256,0z"
	/>
<g>
</g>
<g>
</g>
<g>
</g>
<g>
</g>
<g>
</g>
<g>
</g>
<g>
</g>
<g>
</g>
<g>
</g>
<g>
</g>
<g>
</g>
<g>
</g>
<g>
</g>
<g>
</g>
<g>
</g>
</svg>
