<?xml version="1.0" encoding="utf-8"?>
<!-- Generator: Adobe Illustrator 22.0.1, SVG Export Plug-In . SVG Version: 6.00 Build 0)  -->
<svg version="1.1" id="Layer_1" xmlns="http://www.w3.org/2000/svg" xmlns:xlink="http://www.w3.org/1999/xlink" x="0px" y="0px"
	 width="1229.9px" height="1070.5px" viewBox="0 0 1229.9 1070.5" style="enable-background:new 0 0 1229.9 1070.5;"
	 xml:space="preserve">
<style type="text/css">
	.st0{fill-rule:evenodd;clip-rule:evenodd;fill:#959595;}
</style>
<path class="st0" d="M614.3,1070.5c-19.4-30.6-40.8-59.5-64.1-87c-44.3-52.1-95.4-96.7-150.8-136.5c-46.8-33.7-95.8-64-143.9-95.6
	c-43.3-28.5-85.7-58.2-123.8-93.6C83.4,613,45.8,561.1,23.5,498.7C5,446.7-2.5,393.2,0.7,338.2c4-68.1,22.6-131.7,59.2-189.4
	C102.2,82,160,35,236.4,12.3C399.3-36.1,571.7,62.9,612,227.7c0.4,1.6,0.8,3.2,1.3,5.2c2.2-3.5,2.5-7.3,3.5-10.9
	C647.1,112.7,739,27.4,851,7.7c113.4-19.9,209.2,14.8,286.3,99.6c46.3,50.9,73.5,111.7,85.7,179.1c17.5,97,1.9,188.5-47.9,273.7
	c-25.8,44.1-60.1,80.9-98.6,114c-42.5,36.4-89,67.2-135.9,97.4c-48.7,31.4-97.5,62.6-143.6,97.8c-72,55-132.4,120.5-179.8,197.8
	c-0.5,0.8-1,1.7-1.6,2.5C615.3,1069.9,615,1070,614.3,1070.5z"/>
</svg>
