<?xml version="1.0" encoding="utf-8"?>
<!-- Generator: Adobe Illustrator 22.0.1, SVG Export Plug-In . SVG Version: 6.00 Build 0)  -->
<svg version="1.1" id="Layer_1" xmlns="http://www.w3.org/2000/svg" xmlns:xlink="http://www.w3.org/1999/xlink" x="0px" y="0px"
	 width="121.9px" height="100.3px" viewBox="0 0 121.9 100.3" style="enable-background:new 0 0 121.9 100.3;" xml:space="preserve"
	>
<style type="text/css">
	.st0{fill:#FFCE00;stroke:#3A1C03;stroke-linecap:round;stroke-linejoin:round;}
	.st1{opacity:0.43;}
	.st2{fill:#FFFFFF;}
	.st3{fill:#D39C00;stroke:#3A1C03;}
	.st4{fill:none;stroke:#3A1C03;stroke-linecap:round;stroke-linejoin:round;}
	.st5{fill:none;stroke:#3A1C03;stroke-width:1.5;stroke-linecap:round;stroke-linejoin:round;}
</style>
<g>
	<g>
		<path class="st0" d="M90.8,25.5c14,21.6,7.8,50.4-13.8,64.3c-21.6,14-50.4,7.8-64.3-13.8c-14-21.6-7.8-50.4,13.8-64.3
			C48-2.2,76.8,4,90.8,25.5z"/>
		<g class="st1">
			<path class="st2" d="M22.7,68.9C11,51,14.4,27.7,29.6,13.7c-0.5,0.3-0.9,0.6-1.4,0.9c-20,13-25.8,39.8-12.8,59.8
				c13,20,39.8,25.8,59.8,12.8c2.1-1.4,4.1-2.9,5.9-4.6C61.2,94.4,35.3,88.5,22.7,68.9z"/>
		</g>
		<path class="st3" d="M29.7,19.6c0.9-2.7-1.3-3.6-3.4-2.7c-1.9,0.8-3.8,2.3-5,4c-1.1,1.5-1.7,4.5,1.1,4.2c1.6-0.2,3.2-1.5,4.5-2.4
			C27.9,21.9,29.2,20.9,29.7,19.6z"/>
		<path class="st4" d="M20.6,24.6c1.1,1.4,2.9,3.9,1.3,5.7"/>
		<path class="st4" d="M29.7,17.2c1.1,1.7,3.7,3.8,5.8,2"/>
		<path class="st0" d="M12.8,73.9c-1.9-2.9-5-2.9-8-3.5c0.5-1.8-0.7-4.1-1.8-5.3c1.9-1.2,1.7-1.3,2.6-2.2c1.1-1.2,1.1-2.6,1.3-4.1"
			/>
		<path class="st3" d="M6,70.5c0.7-1.1-0.4-2.7-0.7-3.7C5,66,3.1,63.4,2.8,65.7c-0.1,1.1,0.5,2.4,0.9,3.4C4.1,69.9,5,72,6,70.5z"/>
		<path class="st4" d="M5.6,67.7c1-0.5,3-1.9,4.2-1.4"/>
		<path class="st0" d="M88.1,23.5c2.4,3.9,5.9,4.3,9.4,5.5c-0.4,2.2,1.1,5.2,2.4,6.9c-2,1.2-1.9,1.3-2.8,2.3c-1.2,1.3-1,3.1-1.1,5"
			/>
		<path class="st3" d="M96,28.8c-0.7,1.2,0.6,3.4,1.1,4.7c0.4,1,2.7,4.6,2.9,1.8c0.1-1.3-0.8-3.1-1.3-4.3
			C98.3,29.9,97.1,27.1,96,28.8z"/>
		<path class="st4" d="M96.2,31.2c-1.2,0.5-3.3,1.9-4.7,1.2"/>
		<path class="st3" d="M48.8,52.6c-3.4-4.7-11.4,0.5-9.4,5.7c1.5,3.7,5,4.2,7.9,1.6C49.3,58.2,50.5,55,48.8,52.6z"/>
		<path class="st4" d="M40.4,59.9c1.2,1.5,1.7,3.9,0.8,5.7"/>
		<path class="st4" d="M47.9,51.7c1.8,0.2,3.9-1.6,4.6-3.2"/>
		<path class="st4" d="M49.8,56c0.7,0,1.4,0.2,1.9,0.7"/>
		<path class="st4" d="M41.3,51.9c-0.2-1.2-0.9-2.1-1.5-3.1"/>
		<path class="st4" d="M38.8,55.7c-0.6,0.1-1.4,0.2-2.1,0.1"/>
		<path class="st3" d="M83.4,62.7c2.4-1.5,2.4-6.1,0.9-8.2C79.7,48.1,76.1,67.2,83.4,62.7z"/>
		<path class="st4" d="M81.9,52.9c-1.6,0.6-4.7-1.2-4.6-3"/>
		<path class="st4" d="M82.1,63.2c-1.6,0.6-3.9,1.1-4.5,2.9"/>
		<path class="st4" d="M78.8,57c-0.8-0.2-1.8-0.2-2.4-0.8"/>
		<path class="st3" d="M29.7,94.2c1.1,2.6,5.7,3.3,8,2.2C44.6,92.8,26.4,86.2,29.7,94.2z"/>
		<path class="st4" d="M39.6,94.2c-0.3-1.6,2-4.4,3.7-4"/>
		<path class="st4" d="M29.3,92.8c-0.4-1.7-0.4-4.1-2.2-5"/>
		<path class="st4" d="M36,90.6c0.4-0.8,0.5-1.7,1.2-2.3"/>
		<path class="st4" d="M28.8,21.8c0.5,1,1.3,2.2,2.6,2.1"/>
		<path class="st4" d="M24,24.7c0.3,0.5,0.7,1,1,1.5"/>
		<path class="st0" d="M59.5,5c1.6,0.4,3.1,0.6,4.8,0.5c1.5-0.1,3.3-2.5,4.6-2.5c1.5,0,3.9,0.8,5.5,1.9c1.2,0.8,2.5,1.7,3.3,2.4
			c-0.8,3.2,1,6.7,2.9,8.2"/>
		<path class="st3" d="M43.1,13.7c-0.9,1.6,2.9,1.8,2.9,0.4C46,12.9,43.5,12.8,43.1,13.7z"/>
		<path class="st4" d="M42.7,14.5c0.4,1.3,1.1,3.1-0.3,4"/>
		<path class="st4" d="M45.5,13.3c1,1,2,2,3.3,0.7"/>
		<path class="st3" d="M58.2,85c0.4-2-3-2.8-4.4-2C50.1,85.1,57.7,87.4,58.2,85z"/>
		<path class="st4" d="M52.6,83.6c0.6-1.1-0.2-2.8-1.5-3"/>
		<path class="st4" d="M58.4,84.9c-0.5-1.7,1.5-2.5,2.7-3.3"/>
		<path class="st0" d="M70.1,92.5c3-0.5,6.4-0.8,9.6,2.6c2.6-0.8,10.5-7.3,11.6-9.7c-2.3-3.5-2.4-4.7-1.9-8.8"/>
		<path class="st4" d="M97.1,33.9c-2.1,0.4-4.6,3.8-4.5,6"/>
		<path class="st4" d="M83.8,92.3c-1.4-3.1-3.8-3.7-6.7-5.2"/>
		<path class="st4" d="M88.2,88c-1.2-1.2-3-2.8-3.4-4.5"/>
	</g>
	<path class="st5" d="M103.6,23.5c-2.2-2.2-5.7-6.7-6.8-9.7c3.3-0.7,6.7,0.9,9.8,1.7c0-2.4,0.2-5.1,0.3-7.6c4.2,2,5.9,6.5,7.4,10"/>
	<path class="st5" d="M114.1,36.5c8.5-0.8,4.8-13.7-2.4-10.8C106.5,27.9,106.7,37.1,114.1,36.5z"/>
	<path class="st5" d="M113.1,54.2c1.1,0.1,2.3-0.2,3.5-1c3-2,3.2-7.9-0.3-9.9c-3.2-1.8-7.5,1.7-7.9,5
		C107.9,51.6,110.2,54,113.1,54.2z"/>
	<path class="st5" d="M102.9,72.1c2-3.3,3.5-8.1,3.9-11.9c5.5,1.9,4.8,10.7,6.1,15c2.6-4,5.2-8.4,5-13.4"/>
</g>
</svg>
