<?xml version="1.0" encoding="iso-8859-1"?>
<!-- Generator: Adobe Illustrator 19.0.0, SVG Export Plug-In . SVG Version: 6.00 Build 0)  -->
<svg version="1.1" id="Capa_1" xmlns="http://www.w3.org/2000/svg" xmlns:xlink="http://www.w3.org/1999/xlink" x="0px" y="0px"
	 viewBox="0 0 409.6 409.6" style="enable-background:new 0 0 409.6 409.6;" xml:space="preserve">
<path style="fill:#FFE600;" d="M402.773,269.652v34.852c0,7.146-5.792,12.937-12.937,12.937H19.763
	c-7.146,0-12.937-5.792-12.937-12.937V57.31c0-7.146,5.792-12.937,12.937-12.937h370.074c7.146,0,12.937,5.792,12.937,12.937v75.919
	"/>
<path style="fill:#602F75;" d="M389.833,324.267H19.763C8.866,324.267,0,315.401,0,304.5V57.313c0-10.9,8.866-19.767,19.763-19.767
	h370.07c10.9,0,19.767,8.866,19.767,19.767v75.919c0,3.773-3.053,6.827-6.827,6.827s-6.827-3.053-6.827-6.827V57.313
	c0-3.374-2.739-6.113-6.113-6.113H19.763c-3.371,0-6.11,2.739-6.11,6.113V304.5c0,3.374,2.739,6.113,6.11,6.113h370.07
	c3.374,0,6.113-2.739,6.113-6.113v-34.847c0-3.773,3.053-6.827,6.827-6.827s6.827,3.053,6.827,6.827V304.5
	C409.6,315.401,400.734,324.267,389.833,324.267z"/>
<path style="fill:#602F75;" d="M402.773,241.5c-3.773,0-6.827-3.053-6.827-6.827V163.84c0-3.773,3.053-6.827,6.827-6.827
	s6.827,3.053,6.827,6.827v70.833C409.6,238.447,406.547,241.5,402.773,241.5z"/>
<rect x="27.307" y="64.853" style="fill:#FFFFFF;" width="354.987" height="232.107"/>
<path style="fill:#602F75;" d="M382.293,303.787H27.307c-3.77,0-6.827-3.053-6.827-6.827V64.853c0-3.773,3.057-6.827,6.827-6.827
	h354.987c3.773,0,6.827,3.053,6.827,6.827V296.96C389.12,300.733,386.067,303.787,382.293,303.787z M34.133,290.133h341.333V71.68
	H34.133V290.133z"/>
<path id="SVGCleanerId_0" style="fill:#00E7FF;" d="M109.227,187.733c-3.77,0-6.827-3.053-6.827-6.827v-20.48
	c0-3.773,3.057-6.827,6.827-6.827s6.827,3.053,6.827,6.827v20.48C116.053,184.68,112.997,187.733,109.227,187.733z"/>
<path id="SVGCleanerId_1" style="fill:#00E7FF;" d="M109.227,276.48c-3.77,0-6.827-3.053-6.827-6.827v-20.48
	c0-3.773,3.057-6.827,6.827-6.827s6.827,3.053,6.827,6.827v20.48C116.053,273.427,112.997,276.48,109.227,276.48z"/>
<g>
	<path id="SVGCleanerId_0_1_" style="fill:#00E7FF;" d="M109.227,187.733c-3.77,0-6.827-3.053-6.827-6.827v-20.48
		c0-3.773,3.057-6.827,6.827-6.827s6.827,3.053,6.827,6.827v20.48C116.053,184.68,112.997,187.733,109.227,187.733z"/>
</g>
<g>
	<path id="SVGCleanerId_1_1_" style="fill:#00E7FF;" d="M109.227,276.48c-3.77,0-6.827-3.053-6.827-6.827v-20.48
		c0-3.773,3.057-6.827,6.827-6.827s6.827,3.053,6.827,6.827v20.48C116.053,273.427,112.997,276.48,109.227,276.48z"/>
</g>
<path id="SVGCleanerId_2" style="fill:#00E7FF;" d="M75.093,221.867h-20.48c-3.77,0-6.827-3.053-6.827-6.827
	s3.057-6.827,6.827-6.827h20.48c3.77,0,6.827,3.053,6.827,6.827S78.863,221.867,75.093,221.867z"/>
<path id="SVGCleanerId_3" style="fill:#00E7FF;" d="M163.84,221.867h-20.48c-3.77,0-6.827-3.053-6.827-6.827
	s3.057-6.827,6.827-6.827h20.48c3.77,0,6.827,3.053,6.827,6.827S167.61,221.867,163.84,221.867z"/>
<g>
	<path id="SVGCleanerId_2_1_" style="fill:#00E7FF;" d="M75.093,221.867h-20.48c-3.77,0-6.827-3.053-6.827-6.827
		s3.057-6.827,6.827-6.827h20.48c3.77,0,6.827,3.053,6.827,6.827S78.863,221.867,75.093,221.867z"/>
</g>
<g>
	<path id="SVGCleanerId_3_1_" style="fill:#00E7FF;" d="M163.84,221.867h-20.48c-3.77,0-6.827-3.053-6.827-6.827
		s3.057-6.827,6.827-6.827h20.48c3.77,0,6.827,3.053,6.827,6.827S167.61,221.867,163.84,221.867z"/>
</g>
<path id="SVGCleanerId_4" style="fill:#00E7FF;" d="M85.089,197.733c-1.746,0-3.497-0.667-4.826-2l-14.479-14.486
	c-2.666-2.666-2.666-6.987,0-9.653c2.666-2.666,6.994-2.666,9.653,0l14.479,14.486c2.666,2.666,2.666,6.987,0,9.653
	C88.583,197.067,86.837,197.733,85.089,197.733z"/>
<path id="SVGCleanerId_5" style="fill:#00E7FF;" d="M147.843,260.487c-1.746,0-3.497-0.667-4.826-2L128.538,244
	c-2.666-2.666-2.666-6.987,0-9.653c2.666-2.666,6.994-2.666,9.653,0l14.479,14.486c2.666,2.666,2.666,6.987,0,9.653
	C151.337,259.82,149.589,260.487,147.843,260.487z"/>
<g>
	<path id="SVGCleanerId_4_1_" style="fill:#00E7FF;" d="M85.089,197.733c-1.746,0-3.497-0.667-4.826-2l-14.479-14.486
		c-2.666-2.666-2.666-6.987,0-9.653c2.666-2.666,6.994-2.666,9.653,0l14.479,14.486c2.666,2.666,2.666,6.987,0,9.653
		C88.583,197.067,86.837,197.733,85.089,197.733z"/>
</g>
<g>
	<path id="SVGCleanerId_5_1_" style="fill:#00E7FF;" d="M147.843,260.487c-1.746,0-3.497-0.667-4.826-2L128.538,244
		c-2.666-2.666-2.666-6.987,0-9.653c2.666-2.666,6.994-2.666,9.653,0l14.479,14.486c2.666,2.666,2.666,6.987,0,9.653
		C151.337,259.82,149.589,260.487,147.843,260.487z"/>
</g>
<path id="SVGCleanerId_6" style="fill:#00E7FF;" d="M70.61,260.487c-1.746,0-3.494-0.667-4.826-2c-2.666-2.666-2.666-6.987,0-9.653
	l14.479-14.486c2.661-2.666,6.987-2.666,9.653,0c2.666,2.666,2.666,6.987,0,9.653l-14.479,14.486
	C74.107,259.82,72.356,260.487,70.61,260.487z"/>
<path id="SVGCleanerId_7" style="fill:#00E7FF;" d="M133.364,197.733c-1.746,0-3.494-0.667-4.826-2
	c-2.666-2.666-2.666-6.987,0-9.653l14.479-14.486c2.661-2.666,6.987-2.666,9.653,0c2.666,2.666,2.666,6.987,0,9.653l-14.479,14.486
	C136.859,197.067,135.11,197.733,133.364,197.733z"/>
<g>
	<path id="SVGCleanerId_6_1_" style="fill:#00E7FF;" d="M70.61,260.487c-1.746,0-3.494-0.667-4.826-2
		c-2.666-2.666-2.666-6.987,0-9.653l14.479-14.486c2.661-2.666,6.987-2.666,9.653,0c2.666,2.666,2.666,6.987,0,9.653l-14.479,14.486
		C74.107,259.82,72.356,260.487,70.61,260.487z"/>
</g>
<g>
	<path id="SVGCleanerId_7_1_" style="fill:#00E7FF;" d="M133.364,197.733c-1.746,0-3.494-0.667-4.826-2
		c-2.666-2.666-2.666-6.987,0-9.653l14.479-14.486c2.661-2.666,6.987-2.666,9.653,0c2.666,2.666,2.666,6.987,0,9.653l-14.479,14.486
		C136.859,197.067,135.11,197.733,133.364,197.733z"/>
</g>
<rect x="184.32" y="317.44" style="fill:#00E7FF;" width="40.96" height="47.787"/>
<g>
	<path style="fill:#602F75;" d="M225.28,372.053h-40.96c-3.77,0-6.827-3.053-6.827-6.827V317.44c0-3.773,3.057-6.827,6.827-6.827
		h40.96c3.773,0,6.827,3.053,6.827,6.827v47.787C232.107,369,229.053,372.053,225.28,372.053z M191.147,358.4h27.307v-34.133
		h-27.307V358.4z"/>
	<path style="fill:#602F75;" d="M273.067,372.053H136.533c-3.77,0-6.827-3.053-6.827-6.827s3.057-6.827,6.827-6.827h136.533
		c3.773,0,6.827,3.053,6.827,6.827S276.84,372.053,273.067,372.053z"/>
</g>
<g>
	<path style="fill:#EA3457;" d="M163.68,115.26c0-2.739,0.48-5.159,1.434-7.26c0.959-2.106,2.234-3.854,3.826-5.26
		c1.527-1.34,3.26-2.353,5.207-3.06c1.94-0.7,3.9-1.046,5.879-1.046c1.973,0,3.934,0.346,5.873,1.046
		c1.947,0.707,3.714,1.72,5.306,3.06c1.527,1.406,2.773,3.154,3.727,5.26c0.954,2.099,1.434,4.519,1.434,7.26v3.441h-9.747v-3.441
		c0-2.353-0.654-4.093-1.959-5.207c-1.306-1.114-2.854-1.673-4.634-1.673c-1.787,0-3.333,0.56-4.64,1.673s-1.959,2.854-1.959,5.207
		V151.2c0,2.353,0.654,4.093,1.959,5.207c1.306,1.114,2.854,1.673,4.64,1.673c1.78,0,3.326-0.56,4.634-1.673
		c1.307-1.113,1.959-2.854,1.959-5.207v-12.807h-7.74v-8.607h17.487V151.2c0,2.867-0.48,5.32-1.434,7.354
		c-0.954,2.039-2.2,3.734-3.727,5.067c-1.594,1.406-3.36,2.454-5.306,3.154c-1.94,0.7-3.9,1.053-5.873,1.053
		c-1.98,0-3.941-0.353-5.879-1.053c-1.947-0.7-3.68-1.746-5.207-3.154c-1.594-1.333-2.867-3.026-3.826-5.067
		c-0.954-2.033-1.434-4.487-1.434-7.354V115.26z"/>
	<path style="fill:#EA3457;" d="M222.839,167.253v-4.966h-0.193c-1.273,1.78-2.567,3.154-3.867,4.106
		c-1.307,0.954-3.14,1.434-5.501,1.434c-1.147,0-2.307-0.174-3.487-0.527c-1.179-0.346-2.307-1-3.393-1.959
		c-1.08-0.887-1.959-2.179-2.627-3.867c-0.667-1.688-1.007-3.874-1.007-6.547c0-2.739,0.227-5.147,0.674-7.219
		c0.447-2.067,1.273-3.806,2.48-5.207c1.154-1.34,2.714-2.34,4.687-3.014c1.973-0.667,4.494-1,7.547-1c0.321,0,0.674,0,1.053,0
		c0.387,0,0.734,0.034,1.053,0.094c0.321,0.067,0.7,0.101,1.147,0.101c0.447,0,0.92,0.027,1.434,0.094v-5.067
		c0-1.654-0.353-3.026-1.053-4.106c-0.7-1.087-1.973-1.626-3.82-1.626c-1.273,0-2.441,0.413-3.487,1.241
		c-1.053,0.833-1.741,2.039-2.06,3.633h-9.46c0.253-4.333,1.72-7.84,4.4-10.513c1.273-1.273,2.801-2.28,4.588-3.014
		c1.78-0.727,3.787-1.094,6.019-1.094c2.039,0,3.946,0.321,5.733,0.954c1.78,0.64,3.347,1.594,4.68,2.867
		c1.28,1.273,2.301,2.867,3.06,4.78c0.766,1.913,1.147,4.14,1.147,6.687v33.737H222.839z M222.839,146.42
		c-1.087-0.193-1.973-0.287-2.673-0.287c-2.106,0-3.907,0.493-5.4,1.48c-1.5,0.986-2.246,2.787-2.246,5.4
		c0,1.847,0.44,3.347,1.333,4.494c0.893,1.147,2.133,1.72,3.727,1.72c1.661,0,2.947-0.539,3.874-1.626
		c0.927-1.08,1.386-2.613,1.386-4.588v-6.593H222.839z"/>
	<path style="fill:#EA3457;" d="M239.753,167.253v-48.454h9.747v4.68h0.193c1.021-1.527,2.246-2.787,3.68-3.773
		c1.434-0.986,3.267-1.48,5.494-1.48c2.106,0,3.854,0.507,5.26,1.527c1.399,1.021,2.546,2.133,3.441,3.347
		c1.207-1.34,2.546-2.487,4.014-3.441c1.466-0.959,3.507-1.434,6.12-1.434c1.207,0,2.447,0.207,3.727,0.62
		c1.273,0.413,2.42,1.101,3.441,2.053c1.014,0.954,1.847,2.186,2.48,3.68c0.64,1.5,0.959,3.326,0.959,5.494v37.181h-9.747v-33.546
		c0-1.78-0.42-3.186-1.246-4.207c-0.826-1.014-2.007-1.527-3.533-1.527c-1.853,0-3.127,0.573-3.826,1.72
		c-0.7,1.147-1.046,2.807-1.046,4.966v32.594h-9.754v-33.546c0-1.78-0.413-3.186-1.241-4.207c-0.826-1.014-2.007-1.527-3.533-1.527
		c-1.853,0-3.127,0.573-3.826,1.72c-0.7,1.147-1.053,2.807-1.053,4.966v32.594H239.753z"/>
	<path style="fill:#EA3457;" d="M324.526,146.707H305.22v6.593c0,1.527,0.433,2.707,1.294,3.533c0.86,0.833,2.021,1.246,3.487,1.246
		c1.847,0,3.074-0.539,3.68-1.626c0.606-1.08,0.973-2.167,1.101-3.246h9.747c0,4.267-1.307,7.707-3.92,10.32
		c-1.273,1.34-2.801,2.386-4.588,3.154c-1.78,0.766-3.787,1.147-6.019,1.147c-3.06,0-5.652-0.633-7.786-1.913
		c-2.14-1.273-3.773-2.959-4.927-5.067c-0.7-1.273-1.174-2.734-1.434-4.393c-0.253-1.654-0.381-3.473-0.381-5.446v-15.961
		c0-1.973,0.126-3.794,0.381-5.446c0.259-1.661,0.734-3.127,1.434-4.4c1.154-2.099,2.787-3.787,4.927-5.067
		c2.133-1.273,4.727-1.906,7.786-1.906c2.234,0,4.253,0.381,6.067,1.147c1.819,0.759,3.36,1.812,4.64,3.154
		c2.546,2.867,3.82,6.467,3.82,10.8v13.379H324.526z M305.22,139.059h9.561v-5.547c0-1.847-0.434-3.234-1.294-4.154
		c-0.86-0.927-2.021-1.386-3.487-1.386c-1.466,0-2.627,0.461-3.487,1.386c-0.86,0.92-1.294,2.307-1.294,4.154L305.22,139.059
		L305.22,139.059z"/>
	<path style="fill:#EA3457;" d="M195.98,202.639c0-2.739,0.48-5.159,1.434-7.26c0.959-2.106,2.234-3.854,3.826-5.26
		c1.527-1.34,3.26-2.353,5.207-3.06c1.94-0.7,3.9-1.046,5.879-1.046c1.973,0,3.934,0.346,5.873,1.046
		c1.947,0.707,3.714,1.72,5.306,3.06c1.527,1.406,2.773,3.154,3.727,5.26c0.954,2.099,1.434,4.519,1.434,7.26v35.941
		c0,2.867-0.48,5.32-1.434,7.354c-0.954,2.039-2.2,3.734-3.727,5.067c-1.594,1.406-3.36,2.454-5.306,3.154
		c-1.94,0.7-3.9,1.053-5.873,1.053c-1.98,0-3.941-0.353-5.879-1.053c-1.947-0.7-3.68-1.746-5.207-3.154
		c-1.594-1.333-2.867-3.026-3.826-5.067c-0.954-2.033-1.434-4.487-1.434-7.354V202.639z M205.727,238.58
		c0,2.353,0.654,4.093,1.959,5.207c1.306,1.114,2.854,1.673,4.64,1.673c1.78,0,3.326-0.56,4.634-1.673
		c1.307-1.113,1.959-2.854,1.959-5.207v-35.941c0-2.354-0.654-4.093-1.959-5.207c-1.306-1.114-2.854-1.673-4.634-1.673
		c-1.787,0-3.333,0.56-4.64,1.673c-1.307,1.113-1.959,2.854-1.959,5.207V238.58z"/>
	<path style="fill:#EA3457;" d="M266.419,206.181l-12.621,48.454h-8.6l-12.614-48.454h10.32l6.501,30.967h0.186l6.501-30.967
		H266.419z"/>
	<path style="fill:#EA3457;" d="M297.953,234.086h-19.306v6.593c0,1.527,0.433,2.707,1.294,3.533
		c0.86,0.833,2.021,1.246,3.487,1.246c1.847,0,3.074-0.539,3.68-1.626c0.606-1.08,0.973-2.167,1.101-3.246h9.747
		c0,4.267-1.307,7.707-3.92,10.32c-1.273,1.34-2.801,2.386-4.588,3.154c-1.78,0.766-3.787,1.147-6.019,1.147
		c-3.06,0-5.652-0.633-7.786-1.913c-2.14-1.273-3.773-2.959-4.927-5.067c-0.7-1.273-1.174-2.734-1.434-4.393
		c-0.253-1.654-0.381-3.473-0.381-5.446v-15.961c0-1.973,0.126-3.794,0.381-5.446c0.259-1.661,0.734-3.127,1.434-4.4
		c1.154-2.099,2.787-3.787,4.927-5.067c2.133-1.273,4.727-1.906,7.786-1.906c2.234,0,4.253,0.381,6.067,1.147
		c1.819,0.759,3.36,1.812,4.64,3.154c2.546,2.867,3.82,6.467,3.82,10.8v13.379H297.953z M278.647,226.441h9.561v-5.547
		c0-1.847-0.433-3.234-1.294-4.154c-0.86-0.927-2.021-1.386-3.487-1.386c-1.466,0-2.627,0.461-3.487,1.386
		c-0.86,0.92-1.294,2.307-1.294,4.154L278.647,226.441L278.647,226.441z"/>
	<path style="fill:#EA3457;" d="M305.12,254.633v-48.454h9.747v5.159c1.98-1.787,3.92-3.186,5.833-4.207
		c1.913-1.021,4.267-1.527,7.074-1.527v10.32c-0.959-0.381-1.947-0.573-2.966-0.573c-1.019,0-2.12,0.174-3.294,0.527
		c-1.179,0.346-2.246,0.94-3.207,1.766c-1.021,0.826-1.847,1.913-2.48,3.246c-0.64,1.34-0.959,3-0.959,4.973v28.766h-9.748V254.633z
		"/>
</g>
<g>
</g>
<g>
</g>
<g>
</g>
<g>
</g>
<g>
</g>
<g>
</g>
<g>
</g>
<g>
</g>
<g>
</g>
<g>
</g>
<g>
</g>
<g>
</g>
<g>
</g>
<g>
</g>
<g>
</g>
</svg>
