<?xml version="1.0" encoding="utf-8"?>
<!-- Generator: Adobe Illustrator 22.0.1, SVG Export Plug-In . SVG Version: 6.00 Build 0)  -->
<svg version="1.1" xmlns="http://www.w3.org/2000/svg" xmlns:xlink="http://www.w3.org/1999/xlink" x="0px" y="0px" width="95.7px"
	 height="95.7px" viewBox="0 0 95.7 95.7" style="enable-background:new 0 0 95.7 95.7;" xml:space="preserve">
<style type="text/css">
	.st0{fill:#FFE16B;stroke:#202230;stroke-width:0.5;stroke-linecap:round;stroke-linejoin:round;stroke-miterlimit:10;}
	.st1{fill:#C8C8C9;}
	.st2{fill:#FFFFFF;stroke:#202230;stroke-width:0.5;stroke-linecap:round;stroke-linejoin:round;stroke-miterlimit:10;}
	.st3{fill:#EBBA36;stroke:#202230;stroke-linecap:round;stroke-linejoin:round;stroke-miterlimit:10;}
</style>
<g id="圖層_1">
</g>
<g id="圖層_3">
	<ellipse transform="matrix(0.1578 -0.9875 0.9875 0.1578 -6.9501 87.5109)" class="st0" cx="47.8" cy="47.8" rx="47.6" ry="47.6"/>
	<path class="st1" d="M47,14.9c-18.4,0-33.3,14.9-33.3,33.3c0,6.4,2.2,14.5,7.1,20l-1.4,13.3l10-5c5.1,3.2,11.1,5,17.5,5
		c18.4,0,33.3-14.9,33.3-33.3C80.3,29.8,65.4,14.9,47,14.9z"/>
	<path class="st2" d="M47.1,15C29.9,15,16,29,16,46.2c0,6,1.7,11.6,4.7,16.4L17.4,76l13.3-3.2c4.8,3,10.4,4.7,16.4,4.7
		c17.2,0,31.2-14,31.2-31.2C78.3,29,64.4,15,47.1,15z"/>
	<g>
		<path class="st3" d="M60.2,46.6c-1.2,1.2-3.4,2.5-6.6,4c-0.9,0.4-1.3,0.9-1.3,1.3v1.8c0,1.4-0.5,2.5-1.6,3.2
			c-1.1,0.9-2.4,1.3-3.8,1.3c-1.5,0-2.7-0.4-3.7-1.1c-1.2-0.8-1.7-1.9-1.7-3.4l0.1-3.8c0-2.9,1-4.9,2.9-6.3c0.3-0.2,2-1,5.2-2.1
			c1.8-0.7,2.8-1.7,2.8-3.2c0-2.8-1.8-4.2-5.4-4.2c-2.6,0-4.5,1.5-5.6,4.4c-1,2.6-2.8,3.8-5.3,3.8c-1.5,0-2.8-0.5-3.9-1.5
			c-1.1-1-1.6-2.2-1.6-3.7c0-4.2,1.8-7.7,5.6-10.5c3.3-2.4,6.9-3.7,10.9-3.7c4.4,0,8.1,1.4,11.3,4.1c3.4,3,5.1,6.8,5.1,11.7
			C63.6,41.9,62.4,44.5,60.2,46.6z M51.3,69.6c-1.2,1-2.5,1.5-4.1,1.5c-1.6,0-3-0.5-4.1-1.5c-1.1-1-1.7-2.2-1.7-3.7
			c0-1.4,0.6-2.7,1.7-3.7c1.1-1,2.5-1.6,4.1-1.6c1.6,0,2.9,0.6,4.1,1.6c1.1,1,1.7,2.3,1.7,3.7C53,67.4,52.4,68.6,51.3,69.6z"/>
	</g>
</g>
</svg>
