<?xml version="1.0" encoding="utf-8"?>
<!-- Generator: Adobe Illustrator 22.0.1, SVG Export Plug-In . SVG Version: 6.00 Build 0)  -->
<svg version="1.1" id="ƒŒƒCƒ_x201E__x5B__x5F_1"
	 xmlns="http://www.w3.org/2000/svg" xmlns:xlink="http://www.w3.org/1999/xlink" x="0px" y="0px" width="188.5px" height="188.5px"
	 viewBox="0 0 188.5 188.5" style="enable-background:new 0 0 188.5 188.5;" xml:space="preserve">
<style type="text/css">
	.st0{fill:#0086D1;}
	.st1{fill:#FFFFFF;}
	.st2{fill:#FFE100;}
	.st3{fill:#E60012;}
</style>
<g>
	<g>
		<g>
			
				<ellipse transform="matrix(0.9998 -2.181392e-02 2.181392e-02 0.9998 -2.0792 -2.1427)" class="st0" cx="-99.3" cy="94.2" rx="94.2" ry="94.2"/>
		</g>
	</g>
	<g>
		<g>
			<path d="M-52.6,97.3c0-0.1,8.9-4.2,5.3-25.3c-2.4-13-20.6-41.4-63.6-28.8c-48.3,17-44.5,49.2-36,69.9
				c7.9,19.1,29.4,40.8,61.7,34.1c21.2-4.4,36.6-20.1,38-33.3C-46.2,104.7-52.6,97.3-52.6,97.3z"/>
			<path d="M-97,156.6C-97,156.6-97,156.6-97,156.6c-30.1,0-49.7-21.7-57.4-40.4c-7.1-17.2-7.7-33.4-1.7-46.9
				c6.6-14.8,20.9-26.2,42.5-33.8c0.1,0,0.3-0.1,0.4-0.1c7.9-2.3,15.5-3.5,22.7-3.5c32.1,0,48.5,23.7,51.3,38.6
				c2.4,14.1,0,22.6-3.1,27.7c2.1,4.1,4,9.9,3.3,16.6c-1.9,17.9-21.4,35.6-44.4,40.4C-88.1,156.1-92.6,156.6-97,156.6z M-108.4,51
				c-17,6-28.1,14.4-32.8,25c-4.2,9.4-3.6,20.9,1.8,34c5.8,14,20.3,30.3,42.3,30.3h0c3.3,0,6.7-0.4,10.1-1.1
				c17.6-3.7,30.5-16.5,31.5-26.2c0.5-4.5-2.4-9.1-3.6-10.5c-0.6-0.8-1.2-1.7-1.5-2.7c-0.4-1.3-0.5-2.6-0.3-3.9
				c0.4-2.3,1.8-4.5,3.8-5.7c1.1-0.9,3.4-5.7,1.5-16.9c-1.2-6.5-10.3-25.2-35.2-25.2C-96.1,48.2-102.1,49.2-108.4,51z"/>
		</g>
		<path class="st1" d="M-52.6,97.3c0-0.1,8.9-4.2,5.3-25.3c-2.4-13-20.6-41.4-63.6-28.8c-48.3,17-44.5,49.2-36,69.9
			c7.9,19.1,29.4,40.8,61.7,34.1c21.2-4.4,36.6-20.1,38-33.3C-46.2,104.7-52.6,97.3-52.6,97.3z"/>
		<g>
			<path d="M-97,151.1C-97,151.1-97,151.1-97,151.1c-27.4,0-45.3-19.9-52.4-37c-6.5-15.8-7.1-30.5-1.7-42.6
				c6-13.4,19.2-23.8,39.3-30.9c0,0,0.1,0,0.1,0c7.4-2.2,14.5-3.3,21.1-3.3c28.8,0,43.5,21,45.9,34.2c2.7,15.7-1.3,23.1-4.3,26.2
				c2.1,3.2,5.2,9.3,4.4,16.4c-1.5,13.7-16.9,30.8-40.1,35.7C-88.8,150.7-92.9,151.1-97,151.1z M-110.1,45.8
				c-18.6,6.5-30.7,16-36.1,27.9c-4.8,10.9-4.2,23.7,1.8,38.3c6.4,15.5,22.7,33.6,47.4,33.6h0c3.6,0,7.4-0.4,11.2-1.2
				c20.5-4.3,34.6-19.4,35.8-30.9c0.8-7.7-4.6-14.3-4.8-14.5c-0.2-0.3-0.4-0.6-0.5-0.9c-0.1-0.4-0.2-0.9-0.1-1.3
				c0.1-0.8,0.7-1.5,1.3-1.9c0.7-0.4,7-4.8,4-22.4c-1.4-7.7-11.9-29.7-40.5-29.7C-96.6,42.8-103.2,43.8-110.1,45.8z"/>
			<path d="M-79.8,123.6c-0.6,0-1.1-0.1-1.6-0.4c-12.7-7.3-17.5-16.9-13.5-27.1c2.7-6.9,7.8-11.2,14.6-12.5
				c11.1-2.1,23.9,4.3,30.8,11.7c1.2,1.3,1.2,3.4-0.2,4.6c-1.3,1.2-3.4,1.2-4.6-0.2c-7.4-8-18.3-10.9-24.8-9.7
				c-4.6,0.9-7.9,3.7-9.8,8.5c-2.8,7,0.8,13.4,10.6,19c1.6,0.9,2.1,2.9,1.2,4.5C-77.6,123-78.7,123.6-79.8,123.6z"/>
			<path d="M-67.9,90.9c-0.1,0-0.2,0-0.3,0c-1.8-0.2-3.1-1.7-3-3.5c0.6-7-0.4-13-3-17.8c-0.9-1.6-0.3-3.6,1.3-4.4
				c1.6-0.9,3.6-0.3,4.4,1.3c3.2,5.9,4.5,13.2,3.8,21.5C-64.8,89.6-66.2,90.9-67.9,90.9z"/>
			<path d="M-90.5,97.8c-1.6,0-3-1.2-3.2-2.8c-1.3-9-4-16.5-5.4-20.2c-0.7-1.7,0.1-3.6,1.8-4.3c1.7-0.7,3.6,0.1,4.3,1.8
				c1.6,3.9,4.5,12,5.9,21.7c0.3,1.8-1,3.4-2.8,3.7C-90.2,97.8-90.4,97.8-90.5,97.8z"/>
			<path d="M-125.1,118c-2.1,0-4.1-0.5-6.1-1.4c-9.2-4.3-13.8-17.3-14-17.8c-0.6-1.7,0.3-3.6,2-4.2c1.7-0.6,3.6,0.3,4.2,2
				c1.1,3,5.1,11.5,10.6,14.1c2.1,1,4.1,1,6.4,0.2c0.9-0.4,1.6-1.1,2.1-2.2c1.8-4.3,0-12.8-1.6-18.2c-0.6-1.4-1-2.7-1.2-3.6
				c0-0.1-0.1-0.1-0.1-0.2l0,0c-0.2-0.7-0.3-1.1-0.3-1.3c0-1.7,1.4-3.2,3.1-3.3c2.6-0.1,3.2,1.6,4.3,5.2c0.1,0.3,0.2,0.5,0.3,0.8
				c1.5,3.8,4.3,9.8,8.5,14.6c3.5,4,6.5,4.7,10.8,2.6c0.6-0.3,1-0.6,1.4-1c1.3-1.3,3.4-1.2,4.6,0.1c1.3,1.3,1.2,3.4-0.1,4.6
				c-0.9,0.9-1.9,1.6-3.1,2.1c-7,3.4-13.1,2-18.5-4.2c-0.3-0.3-0.6-0.7-0.8-1c-0.6,6.7-3.8,9.6-6.9,10.9
				C-121.5,117.7-123.3,118-125.1,118z"/>
		</g>
	</g>
</g>
<g>
	<g>
		<g>
			<path class="st2" d="M381.9,94.2c0,52-42.2,94.2-94.2,94.2c-52,0-94.2-42.2-94.2-94.2c0-52,42.2-94.2,94.2-94.2
				C339.8,0,381.9,42.2,381.9,94.2z"/>
		</g>
	</g>
	<g>
		<g>
			<g>
				<g>
					<path d="M320.2,105.4c0,0,27-50.5,12.2-56.4c-16.1-6.4-34.8,39.6-34.7,39.8c0,0.1,7.8-57-11.3-56.8
						c-19.1,0.7-11.1,58.4-11.2,58.3c0-0.1-16.5-51.6-32.6-42.3c-16,8.5,13.6,52.8,13.6,53.4c0-0.3-23-29.9-35.4-17
						c-12.5,11.8,24.7,36.7,24.7,37.4c0-0.3,5.1,32.7,34.9,34.5c29.1,1.6,40.3-18,40.3-17.9c0-0.4,39.8-16.8,36.4-30.6
						C354.2,95,320.2,105.4,320.2,105.4z"/>
					<path d="M283.7,164.6c-1.2,0-2.5,0-3.8-0.1c-24.3-1.5-37.4-20.8-41.8-38c-24.3-18.7-27.8-28.7-28.1-35.3
						c-0.2-4.8,1.5-9.1,5-12.5c4.7-4.8,11-6.6,17.9-5.1c-3.2-9.2-4-16.4-2.4-22.2c1.3-4.7,4.1-8.3,8.2-10.5c2.5-1.4,5.1-2.1,7.9-2.1
						c6.9,0,13.3,4.2,19.5,13c1.1-9.9,3.6-17,7.5-21.6c3.3-3.9,7.6-6.1,12.5-6.3c0.1,0,0.2,0,0.2,0l0.2,0c5,0,9.4,2.1,12.7,5.9
						c4.9,5.6,7.1,15.1,7.9,24.9c7.4-9.8,14.7-14.5,22.2-14.5c2.1,0,4.2,0.4,6.2,1.2c3.9,1.6,6.8,4.6,8.4,8.8
						c3.9,10.7-2.6,29.6-8.8,43.7c3-0.4,6-0.7,9-0.7c15.8,0,20,7.9,21.1,12.6c4,16.3-18.6,29.3-38.8,38.9
						C321.8,150.7,308.9,164.6,283.7,164.6z M253.6,120.5c0.9,4.7,6.4,26.4,27.3,27.6c0.9,0.1,1.9,0.1,2.8,0.1
						c19.1,0,27.8-10.8,29.7-13.6c0.4-0.8,0.9-1.4,1.5-1.9c0.7-0.7,1.4-1.2,2.3-1.6c0.7-0.4,1.3-0.7,2-1
						c23.6-11.2,28.7-17.9,29.7-20c-0.8-0.2-2.3-0.5-4.9-0.5c-7.7,0-18,2.6-21.3,3.7c-3.2,1-6.6-0.1-8.7-2.6c-2.1-2.6-2.5-6.1-0.9-9
						c10.6-19.8,16.6-39.1,15.6-44.9c-1.9,0.6-6.6,4-13.4,15.2c-5.3,8.7-9.2,17.9-9.9,19.7c-1.1,3.2-4.2,5.5-7.7,5.5
						c-4.4,0-8-3.4-8.2-7.8c0-0.5,0-1,0.1-1.5c0-0.3,1.6-11.9,1.5-24.3c-0.2-19.1-4.1-22.9-4.5-23.2c-0.1,0-0.2,0.1-0.5,0.5
						c-5,5.9-5.3,29.8-2.8,48.6c0.1,0.7,0.1,1.5,0,2.3c-0.6,3.9-3.9,6.9-7.8,7c-3.8,0.1-7.1-2.3-8.1-5.9c-0.2-0.7-3.4-10.5-8.2-20.3
						c-7.1-14.5-11.7-16.9-12.5-17.2c-0.1,0-0.1,0.1-0.2,0.1c-0.1,0.1-4.2,7.4,15.8,40.2c0.4,0.6,0.7,1.2,1,1.7
						c0.8,1.3,1.2,2.5,1.2,4.2c0,4.5-3.5,8.2-8,8.2c-2.9,0-5.6-1.5-7-3.8c-3.7-5.1-15-16.5-21-16.5c-0.6,0-1,0.1-1.6,0.8
						c-0.1,0.1-0.2,0.2-0.3,0.3c0,0,0,0,0,0c0.1,1.2,1.5,7.5,22.1,23.3c0.8,0.6,1.6,1.2,2.3,1.8c0.5,0.4,1,1,1.5,1.6
						C252.9,118,253.4,119.1,253.6,120.5z M239.7,127.6c0.6,0.6,1.3,1.1,2.1,1.5C241,128.7,240.3,128.2,239.7,127.6
						C239.7,127.6,239.7,127.6,239.7,127.6z"/>
				</g>
				<path class="st1" d="M320.2,105.4c0,0,27-50.5,12.2-56.4c-16.1-6.4-34.8,39.6-34.7,39.8c0,0.1,7.8-57-11.3-56.8
					c-19.1,0.7-11.1,58.4-11.2,58.3c0-0.1-16.5-51.6-32.6-42.3c-16,8.5,13.6,52.8,13.6,53.4c0-0.3-23-29.9-35.4-17
					c-12.5,11.8,24.7,36.7,24.7,37.4c0-0.3,5.1,32.7,34.9,34.5c29.1,1.6,40.3-18,40.3-17.9c0-0.4,39.8-16.8,36.4-30.6
					C354.2,95,320.2,105.4,320.2,105.4z"/>
			</g>
			<g>
				<path d="M282.5,125.2c-0.5,0-1.1-0.1-1.6-0.4c-1.6-0.9-2.1-2.9-1.2-4.5c10.7-19,39.6-18.8,40.8-18.7c1.8,0,3.2,1.5,3.2,3.3
					c0,1.8-1.5,3.2-3.3,3.2c-0.4,0-26.3-0.1-35.1,15.4C284.7,124.6,283.6,125.2,282.5,125.2z"/>
				<path d="M283.7,159.2c-1.1,0-2.3,0-3.5-0.1c-12.6-0.8-23-7-30.1-18.2c-4.5-7.1-6.4-14.2-7.2-17.6c-0.3-0.3-0.8-0.6-1.2-0.9
					c-11-8.5-25.8-20.9-26.3-31.5c-0.2-3.2,1-6.1,3.4-8.4c2.6-2.7,5.8-4.1,9.5-4.1c4.6,0,9.8,2.2,15.5,6.5
					c-7.3-14.5-10-25.3-8.1-32.1c0.9-3.3,2.8-5.7,5.6-7.2c1.6-0.9,3.4-1.4,5.2-1.4c7.3,0,14.6,7.6,22.3,23.1c0.7,1.5,1.4,2.9,2,4.3
					c-0.5-13.5,0.4-30.4,6.8-38c2.3-2.8,5.2-4.2,8.6-4.4l0.2,0c3.4,0,6.3,1.4,8.7,4.1c6.8,7.9,7.4,26.5,6.7,40.1
					c6.5-12.3,16.8-27.9,27.4-27.9c1.4,0,2.8,0.3,4.2,0.8c2.5,1,4.3,2.9,5.3,5.6c4.2,11.5-7.4,37.4-13.2,49.1
					c4.9-1.2,12-2.5,18.4-2.5c11.5,0,15,4.6,15.9,8.5c2.3,9.5-9.4,20.2-36,32.8c-0.5,0.2-0.8,0.4-1.1,0.5c-1.2,1.8-4.2,5.7-9.4,9.6
					C305.1,156,294.9,159.2,283.7,159.2z M248.2,121.4C248.2,121.4,248.2,121.4,248.2,121.4c1,5.1,7.3,30.6,32.3,32.1
					c1.1,0.1,2.1,0.1,3.2,0.1c22.5,0,32.7-13.7,34.4-16.4c0.2-0.4,0.5-0.7,0.9-1.1c0.1-0.1,0.2-0.2,0.4-0.3c0.5-0.3,1.2-0.6,2-1
					c32-15.1,33.7-23.6,33-26.5c-0.8-3.5-6.1-4.3-10.5-4.3c-10.1,0-22.7,3.9-22.9,3.9c-1.1,0.3-2.2,0-2.9-0.9
					c-0.7-0.9-0.8-2.1-0.3-3.1c5.6-10.5,19.4-40.1,15.7-50.2c-0.6-1.6-1.5-2.1-2.1-2.4c-0.7-0.3-1.4-0.4-2.1-0.4
					c-5.1,0-11.7,6.5-18.8,18.2c-5.6,9.3-9.7,19.1-10.2,20.3c-0.4,1.1-1.4,1.9-2.6,1.9c-1.5,0-2.7-1.2-2.8-2.6c0-0.2,0-0.3,0-0.5
					l0,0c1.6-11.2,3.9-42.4-4-51.4c-1.3-1.5-2.7-2.2-4.5-2.2c-1.8,0.1-3.2,0.8-4.6,2.4c-7.9,9.4-5.5,41.3-4,52.8c0,0.3,0,0.5,0,0.8
					c-0.2,1.3-1.3,2.3-2.6,2.4c-1.3,0-2.4-0.8-2.8-2c-2.7-9.2-15.5-41.4-26-41.4c-0.9,0-1.7,0.2-2.6,0.7c-1.6,0.8-2.5,2-3,3.8
					c-2.8,10.1,9.2,31.9,16.6,44c1.3,2.1,1.4,2.3,1.4,3c0.1,1.5-1.1,2.8-2.6,2.9c-1.1,0-2-0.5-2.5-1.4C252,100.3,238.2,84,228.3,84
					c-2.1,0-4,0.8-5.5,2.4c0,0-0.1,0.1-0.1,0.1c-1.2,1.2-1.8,2.5-1.7,4.1c0.3,6.1,8.4,15.3,24.2,27.4
					C247.5,119.8,248.1,120.3,248.2,121.4z M323.5,138.5c0,0.4-0.1,0.7-0.3,1C323.3,139.3,323.4,138.9,323.5,138.5z"/>
			</g>
		</g>
	</g>
</g>
<g>
	<g>
		<g>
			<g>
				<path class="st3" d="M188.5,94.2c0,52-42.2,94.2-94.2,94.2S0,146.3,0,94.2S42.2,0,94.2,0S188.5,42.2,188.5,94.2z"/>
			</g>
		</g>
	</g>
	<g>
		<g>
			<path d="M71.7,88.2c0-0.6-22.4-45.3-4.7-54.5C92.1,20.8,97.4,85.3,97.4,85c0,0.2,8.3-58.4,30.9-48.2c22.5,10.2-4.1,53.7-4.1,54.5
				c0,0,13.4,8.3,11.3,31.5c-2,23-25.5,34.9-44.7,33.7c-17-1.1-42.1-14.9-40.7-38.5C51.5,93.9,71.7,88.1,71.7,88.2z"/>
			<path d="M93.5,164.6c-1.1,0-2.2,0-3.2-0.1c-10.9-0.7-22.8-5.4-31.8-12.6C47,142.8,41.1,130.5,42,117.3c0.9-15.1,8.1-24.3,14-29.4
				c1.6-1.4,3.4-2.7,5.1-3.7c-2.3-5.5-5.3-13.6-7.2-21.7c-2.9-12.7-3.7-29.2,9.3-36c3.4-1.8,6.8-2.6,10.2-2.6
				c10.9,0,19.4,8.6,25.2,25.7c5.3-12,13.1-22.2,24.6-22.2c2.8,0,5.7,0.6,8.5,1.9c6,2.7,10.3,7.4,12.4,13.6
				c3.8,11.1,0.6,26.4-9.8,46.7c4.7,5.5,10.9,16.3,9.4,33.9c-1.1,12.4-7.5,23.4-18.1,31C116.5,160.9,104.9,164.6,93.5,164.6z
				 M73.5,96.2c-1.7,0.6-14.3,5.3-15.3,22.1c-1.1,18.5,20.6,29.1,33.1,29.9c0.7,0,1.4,0.1,2.2,0.1c20.5,0,32.8-13.5,33.9-26.3
				c1.5-17.1-7-23.4-7.6-23.9c-0.3-0.2-0.6-0.4-0.9-0.7c-1.9-1.7-2.9-4.1-2.8-6.6c0.1-1.9,0.7-3,1.8-5c4.3-8.1,14.1-28,10.8-37.7
				c-0.6-1.9-1.7-3.1-3.6-3.9c-0.7-0.3-1.3-0.5-1.8-0.5c-6,0-14.4,20.2-17.7,42.4c0,0,0,0.1,0,0.2c-0.7,4.1-4.3,7-8.4,6.8
				c-4.1-0.2-7.5-3.4-7.8-7.5c0-0.1-1.1-12.9-4.5-25.3c-4.3-15.8-9.2-20.1-11.4-20.1c-0.7,0-1.6,0.3-2.7,0.8
				c-3.6,1.9-4.6,14.8,7.9,42.6c0.3,0.6,0.5,1.1,0.7,1.6c0.1,0.2,0.1,0.3,0.2,0.5c0.2,0.7,0.4,1.4,0.4,2.2
				C80,91.9,77.3,95.3,73.5,96.2z M125.7,99.2c-0.5,0.1-1,0.1-1.5,0.1C124.7,99.4,125.2,99.3,125.7,99.2z M119.8,98.1
				c0.2,0.1,0.5,0.3,1,0.6C120.4,98.5,120.1,98.3,119.8,98.1z"/>
		</g>
		<path class="st1" d="M71.7,88.2c0-0.6-22.4-45.3-4.7-54.5C92.1,20.8,97.4,85.3,97.4,85c0,0.2,8.3-58.4,30.9-48.2
			c22.5,10.2-4.1,53.7-4.1,54.5c0,0,13.4,8.3,11.3,31.5c-2,23-25.5,34.9-44.7,33.7c-17-1.1-42.1-14.9-40.7-38.5
			C51.5,93.9,71.7,88.1,71.7,88.2z"/>
		<g>
			<path d="M93.5,159.2c-1,0-1.9,0-2.9-0.1C72,158,45.8,142.5,47.3,117.7c1.1-19.3,14-28.1,20.6-31c-13.3-30.1-14.1-49.2-2.3-55.4
				c2.6-1.3,5.2-2,7.7-2c14.6,0,21.5,22.8,24.6,39.3c3.9-15.5,11.7-35.7,25.2-35.7c2.1,0,4.2,0.5,6.3,1.4c4.7,2.1,7.9,5.6,9.5,10.4
				c3.4,10.1-0.4,25.5-11.2,45.9c4,3.6,12.3,13.4,10.6,32.5c-1,11-6.5,20.4-15.9,27.1C114.3,155.9,103.7,159.2,93.5,159.2z
				 M72.2,90.9c-1.2,0.4-18,5.9-19.3,27.1c-1.3,21.3,21.7,34.6,38.1,35.6c0.8,0.1,1.7,0.1,2.5,0.1c23.7,0,38-16.1,39.3-31.2
				c1.8-20.9-9.4-28.5-10-28.9c-0.1-0.1-0.2-0.1-0.3-0.2c-0.7-0.6-1-1.4-1-2.3c0-0.7,0.2-1,1.1-2.8c12.8-23.9,13.1-36,11.1-42
				c-1.1-3.3-3.3-5.6-6.5-7.1c-1.4-0.6-2.7-0.9-4-0.9c-6.2,0-12.2,7.9-17,22.2c-3.9,11.6-5.8,23.5-6,24.9c0,0,0,0.1,0,0.1
				c-0.3,1.4-1.5,2.3-2.9,2.3c-1.4-0.1-2.5-1.1-2.6-2.5c-1.1-13.1-7.4-50.4-21.3-50.4c-1.6,0-3.3,0.5-5.1,1.4
				c-8.7,4.5-6.7,22.6,5.5,49.6c0.7,1.5,0.8,1.7,0.8,2.3C74.5,89.5,73.5,90.7,72.2,90.9z"/>
			<path d="M107.4,141.8c-0.1,0-0.1,0-0.2,0c-0.5,0-1-0.2-1.4-0.4l-0.1-0.1C99.6,138.2,80.3,127,86,111c1.7-4.8,6.8-12.2,22.8-8.3
				c4.1,1,7.9,2.5,10.3,3.6c4.7,2.1,6.5,2.9,6.1,5.5c-0.3,1.8-1.9,3-3.7,2.8c-0.5-0.1-1-0.3-1.4-0.5c-2.5-1.4-16.4-8-23.8-5.2
				c-2.1,0.8-3.4,2.2-4.2,4.4c-3.9,11,11.6,19.8,16.5,22.3c1.8,0.9,2.1,2.3,2,3.3C110.6,140.4,109.1,141.8,107.4,141.8z"/>
			<path d="M78.8,138.4c-1.2,0-2.5-0.1-4-0.2c-3.3-0.4-6.5-1.2-8.5-1.7c-4.1-1.2-5.5-1.6-5.9-3.8c-0.3-1.8,0.9-3.5,2.7-3.7
				c0.6-0.1,1.3,0,1.8,0.2c5.1,2,18.6,4.9,20.6,0.1c1.9-4.8-7.6-10.1-12.9-12.3c-2-0.8-2.1-2.6-2.1-3.1c0-1.8,1.5-3.3,3.3-3.3
				c0.5,0,0.9,0.1,1.3,0.3c19.8,8.2,17.6,18,16.5,20.8C90.3,134.9,87,138.4,78.8,138.4z"/>
			<path d="M88.2,120.5C88.2,120.5,88.2,120.5,88.2,120.5c-3.2-0.1-6.8-0.7-10.7-1.9c-5-1.5-7-2.1-7-4.8c0-1.8,1.5-3.3,3.3-3.3
				c0.5,0,0.9,0.1,1.3,0.3c0.6,0.2,7.3,2.9,13.2,3.1c1.8,0,3.2,1.5,3.2,3.3C91.5,119.1,90,120.5,88.2,120.5z"/>
			<path d="M97,108.5c-1.1,0-2.2-0.6-2.8-1.6c-2.3-3.8-8.4-7.4-13.3-9.4c-0.4-0.2-1.1-0.5-1.7-1.4c-1-1.5-0.5-3.5,1-4.5
				c1-0.6,2.1-0.6,3.1-0.2l0.1,0C87,93,96,97.1,99.8,103.5c0.9,1.6,0.4,3.6-1.1,4.5C98.1,108.3,97.5,108.5,97,108.5z"/>
		</g>
	</g>
</g>
</svg>
