<?xml version="1.0" encoding="utf-8"?>
<!-- Generator: Adobe Illustrator 22.0.1, SVG Export Plug-In . SVG Version: 6.00 Build 0)  -->
<svg version="1.1" id="Layer_1" xmlns="http://www.w3.org/2000/svg" xmlns:xlink="http://www.w3.org/1999/xlink" x="0px" y="0px"
	 width="121.9px" height="100.3px" viewBox="0 0 121.9 100.3" style="enable-background:new 0 0 121.9 100.3;" xml:space="preserve"
	>
<style type="text/css">
	.st0{fill:#FF3000;stroke:#3A1C03;}
	.st1{fill:#FF9900;}
	.st2{opacity:0.23;fill:#FFFFFF;}
	.st3{fill:none;stroke:#3A1C03;stroke-width:1.5;stroke-linecap:round;stroke-linejoin:round;}
</style>
<g>
	<g>
		<path class="st0" d="M51.9,3.4c-2.5-0.3-3.7-1.9-6.1-0.4c-1.5,1-0.1,1.8-3,1.3C41.4,4,40.4,2.5,39,4.1c-0.7,0.7,0.4,1.8-0.4,2.7
			c-0.6,0.7-2.1,0.8-3,0.8c-2.1,0.1-4-1.4-5.5,0c-1.7,1.6-0.8,3.5-3.4,4.8c-2,1.1-5.6,1.1-6.6,3.1c-1.1,2.2,1.1,3.9-1.2,5.8
			c-1.8,1.5-5.1,1.6-5.9,4.3c-0.6,2.2,0.6,3.8-2,5.7c-1.1,0.8-3.9,1.2-3.9,2.8c0,0.5,1.4,1.6,1.5,2.3c0.1,0.7-0.2,1.9-0.5,2.5
			c-0.8,1.7-3.6,2.9-3.3,5c0.3,1.8,2.5,2.3,2.3,4.7c-0.2,2-2,3.9-2.8,5.8c-1,2.7-1,2.8,0.7,4.7C9,63.4,7,65.7,6.7,70.6
			c3.5,0.6,5.4,0.4,5.8,4.4c0.1,1-0.5,3.8,0.3,4.6c1.3,1.3,3.4-0.6,4.9,0.9c1.3,1.4-0.3,3.6,1.1,4.8c1.8,1.5,3.6-0.6,4.7,2.1
			c0.4,1-0.9,2,0.4,2.7c1.1,0.6,2-1.1,3-1c3.4,0.4,1.1,2.8,1.5,4.6c0.8,2.9,2.5,0.6,4.3,0.8c2.5,0.2,2.1,3.3,4.3,3.4
			c1.6,0.1,2.5-2.1,4.4-1.8c2.2,0.3,2.2,2.5,4.4,2.4c1.8-0.1,2.1-1.5,4.2-0.6c0.6,0.2,0.8,1.2,1.6,1.3c1.4,0.1,1.1-1.1,2.2-1.4
			c1.9-0.5,3.3,1.5,4.9,1.2c1.6-0.3,2.3-2.1,3.7-2.6c2-0.7,3.5,0.6,5.4,1.3c0.8-1.7,1.8-3.5,3.5-4.4c1.4-0.7,3.2,0,4.5-0.6
			c1.4-0.7,1.1-2.6,2.3-3.3c1.3-0.7,2.8,1.5,3,1.4c3.2-1.7,1.8-6,5-6.9c2-0.6,3.5,1,4.1-1.6c0.5-2-1.4-2.6,0.2-4.4
			c1.1-1.3,2.8-0.8,3.9-1.7c1.6-1.4,0.6-2.6,0.8-4.4c0.3-2.3,3.2-3.3,3.7-5.4c0.6-2.1-2-3.8-0.9-5.7c0.9-1.5,3.3-1.2,2.5-4.3
			c-0.2-0.9-1.7-1.8-1.6-2.8c0.2-1.6,1.4-0.7,2-1.6c1.5-2.3-0.7-3-0.7-4.9c0-1.1,1.5-2,1.3-3.2c-0.2-0.9-2.5-1.2-3-2.5
			c-0.7-1.7,1.2-4.1,0.5-5.7c-0.6-1.5-3.2-1.6-4.2-3.1c-1.5-2.1-0.5-3.9,0.3-6.1c-1.6-0.9-3.8-1.2-4.7-2.9c-0.9-1.8,0.7-4-1.2-5.5
			c-1.8-1.4-4.3,0.8-5.7-1.6c-1.2-2.1,1.2-2.1,1.1-3.4c-0.1-2.2-1.6-1.1-2.5-1.1c-1.3,0-2,0.4-3.5-0.4c0.2-0.8,0.1-1.7,0-2.5
			c-1.2-0.4-2.9,0.6-3.8,0c-1.7-1-0.1-2.3-1.1-3.6c-1.9-2.4-3.9,0.9-6.1,0.9c-2.6,0-3.2-3.6-5.9-3c-3.5,0.9-1.8,0.7-4.7-1.1
			c-0.8-0.5-1.3-1.1-2.3-0.8c-0.7,0.2-1.6,2.1-1.8,2.1C52.5,3.4,52.2,3.4,51.9,3.4z"/>
		<path class="st1" d="M95.1,55.5c-2.8,23.1-23.7,39.5-46.8,36.8C25.2,89.5,8.8,68.6,11.5,45.5C14.3,22.5,35.2,6,58.3,8.8
			C81.4,11.5,97.8,32.5,95.1,55.5z"/>
		<path class="st2" d="M45.8,11.5c0,0-19.3,3.1-28,22.5c-8.7,19.4-3.5,55.6,41.3,57.4c0,0-46-15.1-35.6-55.9
			C23.5,35.5,27.2,19.7,45.8,11.5z"/>
	</g>
	<path class="st3" d="M108.8,18.3c0-5-9-2.9-9.8,1.4c-1.4,7.9,10.4,2.6,13.7,4.6c5.5,3.6-5,12.3-9.8,7.7"/>
	<path class="st3" d="M108,43.6c-0.2,4.2-4.1,14.1,3.1,14.9c5.9,0.6,6.5-9.8,7-13.5"/>
	<path class="st3" d="M99.8,81.1c3.3-3,3.9-7.8,4.5-12c3.8,4.5,4.4,9.1,5.4,14.8c3.5-2.7,4.7-8.5,5.4-12.5"/>
</g>
</svg>
